<?xml version="1.0" encoding="UTF-8" standalone="no"?>
<svg
   xmlns:dc="http://purl.org/dc/elements/1.1/"
   xmlns:cc="http://creativecommons.org/ns#"
   xmlns:rdf="http://www.w3.org/1999/02/22-rdf-syntax-ns#"
   xmlns:svg="http://www.w3.org/2000/svg"
   xmlns="http://www.w3.org/2000/svg"
   xmlns:xlink="http://www.w3.org/1999/xlink"
   xmlns:sodipodi="http://sodipodi.sourceforge.net/DTD/sodipodi-0.dtd"
   xmlns:inkscape="http://www.inkscape.org/namespaces/inkscape"
   width="210mm"
   height="297mm"
   viewBox="0 0 210 297"
   version="1.1"
   id="svg2884"
   inkscape:version="1.0.1 (3bc2e813f5, 2020-09-07)"
   sodipodi:docname="card_back.svg">
  <defs
     id="defs2878">
    <linearGradient
       inkscape:collect="always"
       id="linearGradient3463">
      <stop
         style="stop-color:#162632;stop-opacity:1;"
         offset="0"
         id="stop3459" />
      <stop
         style="stop-color:#14222d;stop-opacity:1"
         offset="1"
         id="stop3461" />
    </linearGradient>
    <linearGradient
       inkscape:collect="always"
       id="linearGradient3455">
      <stop
         style="stop-color:#cccccc;stop-opacity:1"
         offset="0"
         id="stop3451" />
      <stop
         style="stop-color:#c0c0c0;stop-opacity:1"
         offset="1"
         id="stop3453" />
    </linearGradient>
    <linearGradient
       inkscape:collect="always"
       xlink:href="#linearGradient3455"
       id="linearGradient3457"
       x1="22.494364"
       y1="26.941698"
       x2="222.72221"
       y2="196.98073"
       gradientUnits="userSpaceOnUse"
       gradientTransform="matrix(1.3482628,0,0,2.6697385,-30.308178,-71.907155)" />
    <linearGradient
       inkscape:collect="always"
       xlink:href="#linearGradient3463"
       id="linearGradient3465"
       x1="0.020135494"
       y1="0.020135494"
       x2="269.97989"
       y2="453.97986"
       gradientUnits="userSpaceOnUse" />
    <linearGradient
       inkscape:collect="always"
       xlink:href="#linearGradient3463"
       id="linearGradient3465-6"
       x1="0.020135494"
       y1="0.020135494"
       x2="269.97989"
       y2="453.97986"
       gradientUnits="userSpaceOnUse"
       gradientTransform="matrix(0.67240132,0,0,0.82353119,45.352443,41.142421)" />
    <linearGradient
       inkscape:collect="always"
       xlink:href="#linearGradient3455"
       id="linearGradient3525"
       x1="66.03244"
       y1="212.9081"
       x2="208.61716"
       y2="212.9081"
       gradientUnits="userSpaceOnUse" />
  </defs>
  <sodipodi:namedview
     id="base"
     pagecolor="#ffffff"
     bordercolor="#666666"
     borderopacity="1.0"
     inkscape:pageopacity="0.0"
     inkscape:pageshadow="2"
     inkscape:zoom="0.35"
     inkscape:cx="1071.4286"
     inkscape:cy="864.11324"
     inkscape:document-units="mm"
     inkscape:current-layer="layer1"
     inkscape:document-rotation="0"
     showgrid="false"
     inkscape:window-width="1366"
     inkscape:window-height="705"
     inkscape:window-x="-8"
     inkscape:window-y="-8"
     inkscape:window-maximized="1" />
  <metadata
     id="metadata2881">
    <rdf:RDF>
      <cc:Work
         rdf:about="">
        <dc:format>image/svg+xml</dc:format>
        <dc:type
           rdf:resource="http://purl.org/dc/dcmitype/StillImage" />
        <dc:title></dc:title>
      </cc:Work>
    </rdf:RDF>
  </metadata>
  <g
     inkscape:label="Layer 1"
     inkscape:groupmode="layer"
     id="layer1">
    <rect
       style="fill:url(#linearGradient3465);stroke:#35469d;stroke-width:0.040271;fill-opacity:1"
       id="rect2886"
       width="269.95975"
       height="453.95972"
       x="0.020135494"
       y="0.020135494" />
    <rect
       style="fill:url(#linearGradient3457);fill-opacity:1;stroke:#35469d;stroke-width:0.0542137"
       id="rect3449"
       width="225.24815"
       height="415.74814"
       x="22.691391"
       y="18.911629" />
    <rect
       style="fill:url(#linearGradient3465-6);fill-opacity:1;stroke:#35469d;stroke-width:0.0299672"
       id="rect2886-3"
       width="181.5213"
       height="373.84998"
       x="45.365978"
       y="41.159008" />
    <path
       style="fill:url(#linearGradient3525);stroke:none;stroke-width:0.155321;fill-opacity:1.0"
       d="m 87.156099,152.19211 c -1.425845,1.36466 -2.794376,2.62707 -3.81251,4.34899 -4.152117,7.02185 5.186325,11.68123 9.870037,14.95431 1.232778,0.86157 2.480632,1.70512 3.727699,2.54571 2.181952,1.47074 4.375085,2.94676 6.523485,4.46611 1.09097,0.77163 2.31941,1.88296 3.57005,2.36709 1.00617,0.38939 2.41509,-1.77485 2.64279,-2.58827 -6.77464,-3.60578 -13.165164,-8.35565 -19.570447,-12.58053 -3.356643,-2.21399 -6.245774,-3.69269 -6.057522,-8.07717 h 0.15532 c 4.69e-4,3.95579 2.77559,5.47547 5.746877,7.45541 4.330666,2.88571 8.764927,5.6394 13.202292,8.35798 2.36553,1.4493 4.83995,3.27122 7.45541,4.22303 l 5.28091,-6.52349 c -6.98805,-2.36399 -13.85681,-5.31229 -20.657693,-8.1661 -2.634401,-1.10547 -6.392392,-1.98425 -7.958498,-4.57022 -0.754705,-1.24623 -0.938759,-2.77222 -0.635571,-4.19367 0.142428,-0.66767 0.573908,-1.33986 0.517371,-2.01918 m 100.182081,0 c 0.83143,2.45749 1.34291,5.02124 -0.65002,7.13075 -2.07401,2.19524 -6.07632,3.20074 -8.82457,4.30093 -6.33912,2.53779 -12.63366,5.32839 -19.10449,7.51749 l 5.28092,6.52349 c 2.92563,-1.06473 5.75682,-3.15737 8.38734,-4.80719 4.25906,-2.67121 8.55244,-5.29648 12.73632,-8.08446 2.95607,-1.96977 5.62417,-3.66527 5.1256,-7.61073 h 0.15531 c 0.0999,0.77288 0.36983,1.54653 0.23796,2.32981 -0.53104,3.15258 -3.74215,4.61413 -6.14015,6.21284 -6.375,4.25006 -12.80638,8.9802 -19.57045,12.58101 0.23049,0.8232 1.62248,2.97735 2.64107,2.58827 2.61685,-0.99996 5.12668,-3.46677 7.45479,-5.02168 1.46468,-0.97822 2.89892,-1.9993 4.34899,-2.99879 1.24397,-0.85753 2.49849,-1.70061 3.72771,-2.57911 4.24337,-3.03211 11.32337,-6.66018 8.5366,-12.95704 -0.39825,-0.89969 -0.96952,-1.72398 -1.58769,-2.48513 -0.81575,-1.00449 -1.68353,-1.90766 -2.75524,-2.64046 m -79.6797,4.34899 6.04975,9.78523 2.55177,3.87867 1.96031,0.15967 h 4.65963 c -1.84786,-5.04731 -5.83417,-7.72068 -10.09587,-10.56182 -1.61891,-1.07927 -3.30244,-2.57072 -5.12559,-3.26175 m 44.11117,13.82357 c 1.75047,0 4.87631,0.6129 6.47285,-0.0936 1.05013,-0.46488 1.88918,-2.68659 2.48623,-3.63405 2.1032,-3.33684 4.34961,-6.64723 6.26239,-10.09587 -1.82363,0.69124 -3.50917,2.17881 -5.1256,3.26162 -4.26931,2.8599 -8.24056,5.4947 -10.09587,10.56195 M 84.360326,157.16239 v 0.46596 h -0.155325 l 0.155325,-0.46596 m 35.723834,4.97027 2.76177,6.21284 1.18245,2.08084 4.13248,-0.0617 c -0.87834,-1.85655 -2.53313,-4.92622 -4.08945,-6.26905 -0.99872,-0.86172 -2.76751,-1.45515 -3.98725,-1.96296 m 5.43624,0 c 1.80296,3.67828 4.37648,7.42372 5.59156,11.33844 l -2.33044,-2.39148 -3.26112,0.0617 -8.38734,0.15532 0.93193,1.39789 -1.38391,-0.87818 -1.53613,1.65479 -3.60345,4.65963 c 3.00329,1.83807 6.56232,4.59781 9.94055,5.59156 0.55559,-1.04221 2.15415,-3.63979 1.85345,-4.81495 -0.22662,-0.88549 -1.26463,-1.80903 -1.85345,-2.48515 0.78608,0.55372 1.41933,1.59127 2.32982,1.92552 0.87787,0.32214 2.20152,-0.0847 3.10642,-0.19291 2.52863,-0.30256 5.07045,-0.76822 7.61073,-0.94217 3.64787,-0.24976 7.26623,0.18141 10.87247,0.65126 1.47291,0.19182 4.02312,1.00259 5.43624,0.48382 0.97246,-0.35708 1.64501,-1.48906 2.48514,-2.08083 -0.64754,0.67658 -1.81462,1.69983 -2.02726,2.64046 -0.27802,1.23029 1.29865,3.73951 1.87193,4.81495 3.36814,-0.9908 6.94363,-3.75737 9.94055,-5.59156 l -3.63451,-4.65963 -1.50507,-1.65479 -1.3839,0.87818 0.93192,-1.39789 -8.38733,-0.15532 -3.26113,-0.0617 -2.33043,2.39148 5.43623,-11.33844 -11.64907,0.9197 -11.8044,-0.9197 m 28.88971,0 c -1.19659,0.69845 -2.78257,1.05297 -3.83193,1.96284 -1.56345,1.35572 -3.20566,4.40082 -4.08944,6.26917 l 4.12874,0.0617 1.08632,-1.92552 1.9676,-4.19367 0.73871,-2.17449 m -70.049784,4.19367 c 1.789298,7.42947 4.579641,13.56714 9.444138,19.57045 1.592664,1.96559 3.83612,5.55816 6.553926,4.50432 -0.896203,-1.92179 -3.217782,-3.48867 -4.591597,-5.1256 -2.921124,-3.48044 -5.637224,-7.30957 -7.457589,-11.49376 -1.072798,-2.46619 -1.23822,-6.30804 -3.948878,-7.45541 m 89.930884,24.07477 c 2.74607,1.06472 4.91265,-2.55146 6.53575,-4.50432 4.91389,-5.91214 7.68668,-12.19736 9.46232,-19.57045 -2.68985,1.04179 -2.72123,4.64472 -3.77524,6.98945 -1.93017,4.294 -4.51456,8.17252 -7.5034,11.8044 -1.40022,1.70154 -3.79667,3.30212 -4.71943,5.28092 M 89.641239,171.45192 c 0.283459,1.89306 1.372571,3.77974 2.28229,5.43624 2.721536,4.95552 6.491795,8.55586 10.919991,11.95972 h 0.15533 c 1.11007,-1.57293 1.5122,-4.93672 0.47559,-6.67274 -0.88689,-1.48488 -3.28146,-2.62478 -4.669262,-3.62411 -3.130181,-2.25386 -6.023661,-4.8892 -9.163939,-7.09911 m 95.211801,0 c -2.81659,2.80883 -6.26705,5.09205 -9.47459,7.43196 -1.25732,0.91717 -3.11884,1.81928 -4.08059,3.04678 -1.26773,1.61782 -0.73281,5.37892 0.35289,6.91722 h 0.15532 c 4.50664,-3.46412 8.39697,-7.17428 11.08417,-12.27036 0.62906,-1.19287 2.36368,-3.76623 1.9628,-5.1256 m -66.63273,1.24257 -0.15532,0.15532 0.15532,-0.15532 m 38.3643,0 -0.15533,0.15532 0.15533,-0.15532 m -35.10256,3.57239 -0.15532,0.15531 0.15532,-0.15531 m 3.26174,2.64046 v 0.15531 c 5.52167,2.38232 6.38789,8.25687 7.03372,13.51294 0.2861,2.32919 0.5764,4.66243 0.14149,6.98944 -0.30147,1.61286 -0.60544,3.30726 -1.27301,4.81496 -0.11089,-2.51216 1.3294,-5.07605 0.65794,-7.61074 -0.19151,-0.72301 -1.03583,-2.42782 -2.02927,-1.99789 -0.49004,0.21186 -0.90008,0.85722 -0.71525,1.37661 0.31468,0.88487 0.96315,1.50537 1.10791,2.48514 0.38115,2.58035 -1.29367,4.78762 -1.97242,7.14477 l 5.43623,3.15317 5.9022,0.10857 2.48513,-0.12659 5.43624,-3.13515 c -0.68279,-2.37051 -2.35731,-4.53926 -1.97242,-7.14477 0.1446,-0.97961 0.79571,-1.59981 1.1079,-2.48514 0.1836,-0.52094 -0.24882,-1.16164 -0.73311,-1.37661 -0.97713,-0.43381 -1.82455,1.29243 -2.01141,1.99789 -0.67596,2.55177 0.7693,5.08848 0.65794,7.61074 -1.88544,-4.25331 -1.55834,-8.72997 -0.97573,-13.20229 0.63278,-4.85704 1.88964,-9.96276 6.87793,-12.11505 v -0.15531 l -9.78522,-1.24257 -2.64046,27.02586 h -0.31064 c -0.70795,-8.97103 -2.56591,-18.02516 -2.64046,-27.02586 l -9.78523,1.24257 m 10.40652,-1.24257 1.21616,13.20229 0.80301,7.45541 h 0.31064 l 0.80301,-7.61074 1.21616,-13.04696 h -4.34898 m -27.02587,4.97027 c 7.69693,4.4967 16.17715,7.92619 23.45348,13.04697 -0.20021,-1.58412 0.0297,-4.31575 -0.82584,-5.68631 -0.44345,-0.71028 -1.7191,-1.17717 -2.4359,-1.56579 -2.10196,-1.13974 -4.64177,-3.16777 -6.98945,-3.62037 l -0.77661,2.01917 h -0.15532 l 0.77661,-2.32982 c -2.45656,-1.14689 -4.81092,-2.71703 -7.14477,-4.10001 -0.66043,-0.39125 -1.99728,-1.52618 -2.79345,-1.36294 -1.09284,0.22413 -2.5162,2.70305 -3.10875,3.5991 m 45.35375,1.86385 0.7766,2.32982 h -0.15532 l -0.7766,-2.01917 c -2.34131,0.42247 -4.89806,2.48653 -6.98945,3.62037 -0.73405,0.39794 -1.99495,0.8406 -2.45796,1.56408 -0.82786,1.29383 -0.68403,4.17022 -0.80378,5.68802 3.95416,-2.93495 8.54933,-4.99963 12.89164,-7.34808 3.41085,-1.8446 6.83118,-4.0472 10.40652,-5.54357 -0.2465,-0.90506 -2.06531,-3.76125 -3.10876,-3.76871 -0.9167,-0.007 -2.18459,1.10729 -2.94877,1.56299 -2.22249,1.32567 -4.49188,2.81939 -6.83412,3.91425 m -29.66632,-5.28091 -2.01918,4.81495 c 2.65553,1.75156 5.86943,3.87775 8.8533,4.97028 -0.0895,-4.33346 -2.82886,-8.22907 -6.83412,-9.78523 m 20.19173,9.78523 c 3.03513,-1.10496 6.0962,-3.28256 8.8533,-4.97028 l -2.01917,-4.81495 c -4.04176,1.3763 -6.74684,5.56033 -6.83413,9.78523 m -69.273182,-2.48514 v 0.15532 c 4.856079,0.6539 10.25119,2.31599 14.910821,3.84404 1.176558,0.38581 2.23134,1.09532 3.417062,1.43687 l -6.523485,-8.23201 -11.804398,2.79578 m 106.860872,5.43623 c 1.18573,-0.34155 2.24051,-1.05106 3.41707,-1.43687 4.66336,-1.52913 10.05052,-3.18952 14.91082,-3.84404 l -2.64046,-0.79633 -6.21284,-1.4754 -2.92252,-0.49283 -1.91589,2.45392 -4.63618,5.59155 m -73.00089,-7.30009 -3.90943,4.55883 -5.565148,2.43062 c 1.374278,1.60431 4.218978,2.59728 6.057518,3.63824 l 13.20229,7.47902 c 2.20727,1.24972 5.06362,2.27017 6.3868,4.57017 1.44526,2.51216 0.91329,5.91758 0.91329,8.69798 h 23.29815 c 0,-2.79671 -0.53912,-6.1737 0.91329,-8.69798 1.33374,-2.31801 4.16401,-3.3144 6.3868,-4.57017 4.4557,-2.51744 8.9131,-5.03131 13.35762,-7.56817 1.78961,-1.02155 4.56286,-1.98671 5.90219,-3.54909 l -5.57773,-2.43062 -3.89685,-4.55883 h -0.15532 c -0.48662,0.55714 -1.17143,1.16321 -1.43796,1.86386 -0.39312,1.03366 0.005,2.33214 -0.18732,3.41706 -0.3327,1.88327 -1.1646,3.69648 -2.44009,5.1256 -2.03378,2.27855 -4.7769,3.84077 -7.89435,3.88007 -1.09191,0.0138 -2.8941,-0.82941 -3.8807,-0.43179 -1.75761,0.70826 -2.17667,3.48944 -2.17682,5.09437 h -0.15532 c -0.57283,-2.40623 1.02387,-3.52672 1.70853,-5.59155 -0.67565,-0.37619 -1.86168,-1.6273 -2.63813,-1.54762 -0.86328,0.0887 -1.32676,1.45303 -1.38578,2.1689 -0.14569,1.76864 0.39359,3.5334 1.1208,5.12559 0.17955,0.39328 0.44158,1.31107 0.92665,1.41684 0.42092,0.0916 0.98163,-0.32508 1.35517,-0.48491 l -1.16692,2.91848 -4.57995,2.8284 c 0.69692,1.25033 3.72196,-1.00586 4.65963,-1.55321 -0.0558,1.71241 -2.57057,2.48918 -3.88303,3.23845 -1.03646,0.59146 -2.12355,1.41932 -3.26174,1.78867 -3.61386,1.17252 -7.03138,-0.19462 -10.09587,-1.944 -1.26198,-0.72053 -3.51895,-1.44184 -3.57238,-3.08312 0.93659,0.54673 3.95634,2.81504 4.65963,1.55321 l -4.57995,-2.8284 -1.16693,-2.91848 1.55321,0.62129 c 0.89915,-2.15974 2.43668,-4.698 1.7413,-7.14478 -0.4905,-1.72608 -1.32488,-1.93499 -2.67322,-0.95646 -0.33177,0.24075 -1.02606,0.53554 -1.1017,0.98909 -0.10686,0.64038 0.8274,1.45893 1.11661,1.98655 0.60637,1.10651 0.67688,2.2009 0.45105,3.41706 h -0.15532 c -1.6e-4,-1.58256 -0.44655,-4.39621 -2.17683,-5.09437 -1.02449,-0.41331 -2.89642,0.4644 -4.03602,0.42806 -3.32091,-0.10624 -6.28429,-1.90548 -8.28156,-4.49763 -1.01549,-1.3179 -1.68073,-3.0182 -1.92319,-4.65963 -0.31576,-2.13877 0.20813,-3.62411 -1.75497,-5.1256 m 11.8044,2.1745 -0.15531,0.62128 h -0.15533 l 0.31064,-0.62128 m 34.01531,0 0.15532,0.62128 h -0.15532 v -0.62128 m -38.51962,0.77661 c 0.64987,1.10184 0.83687,2.59246 1.61441,3.57005 1.45412,1.82782 2.7846,0.88129 4.59844,0.71277 0.60248,-0.0559 1.24785,0.20844 1.86385,0.22148 l -2.01918,-1.39789 -6.05752,-3.10641 m 4.19367,0 -0.15532,0.15532 0.15532,-0.15532 m 34.6366,0 -0.15533,0.15532 0.15533,-0.15532 m -4.03835,4.5043 c 0.616,-0.013 1.26136,-0.2774 1.86385,-0.22148 1.86075,0.17287 3.31207,1.13353 4.71369,-0.86638 0.65529,-0.93519 0.84789,-2.37207 1.34383,-3.41644 l -5.59156,2.91708 -2.32981,1.58722 m -39.14091,-4.19367 c 0,1.73028 0.0256,3.3405 0.6918,4.97028 1.94463,4.75826 7.1617,5.98701 11.73389,5.1256 -0.49206,-1.43424 -1.96932,-1.56844 -3.26174,-1.88405 -1.55026,-0.37836 -3.20381,-1.02512 -4.50431,-1.96559 -2.27422,-1.64485 -2.57212,-4.44032 -4.65964,-6.24624 m 51.41127,0 c -1.63739,2.01095 -2.43124,4.87615 -4.65963,6.33027 -2.20106,1.43625 -6.43449,1.48254 -7.76605,3.76561 5.209,0.66182 10.9113,-0.5823 12.3241,-6.52349 0.24914,-1.0478 0.52995,-2.55146 0.10158,-3.57239 m -96.920333,17.08532 v 0.15532 l 54.207053,-0.46596 -5.1256,-3.01649 -10.56183,-5.99229 -4.03835,-2.30636 -2.01917,-0.93845 -2.64046,0.92292 -6.523485,2.56683 -23.298158,9.07448 m 88.377673,-0.46596 v 0.15532 l 54.20705,0.46596 c -1.93965,-1.46638 -5.0411,-2.07866 -7.30009,-2.98216 -5.574,-2.22932 -11.19477,-4.34029 -16.77467,-6.55439 -2.01343,-0.79898 -4.02592,-1.62171 -6.05752,-2.37362 -0.71277,-0.26389 -1.70931,-0.91049 -2.48514,-0.79602 -2.04636,0.30194 -4.58026,2.45174 -6.36816,3.47686 -5.00398,2.86863 -9.99802,6.1692 -15.22147,8.60805 m -30.44292,-8.07669 v 0.31063 c 1.22175,0.76497 2.58997,0.22755 3.26174,-1.08724 l -3.26174,0.77661 m 23.45347,-0.77661 c 0.66711,1.3134 2.2798,2.12448 3.26175,0.77661 l -3.26175,-0.77661 m -21.58962,8.8533 -0.15532,0.15532 0.15532,-0.15532 m 23.14283,0 -0.15532,0.15532 0.15532,-0.15532 m -77.194556,42.09201 5.591564,-3.72383 9.163938,-6.26021 25.162004,-17.14589 11.0278,-7.50667 c -0.69956,-2.07338 -3.13826,-2.93246 -5.12559,-3.11807 -4.54144,-0.42402 -8.60076,1.01906 -12.89166,2.27561 -2.72122,0.79679 -5.405315,1.80343 -8.076683,2.75415 -1.190383,0.42356 -2.840359,0.68978 -3.854447,1.45909 -0.952432,0.7227 -1.597789,2.16719 -2.254798,3.1527 -1.455044,2.18242 -2.94551,4.34061 -4.400865,6.52349 -2.971292,4.45694 -5.923729,8.92879 -8.935215,13.35761 -1.797641,2.64372 -4.038814,5.34196 -5.406048,8.23202 m 80.145666,-34.6366 13.66825,9.31538 22.52155,15.33718 9.16394,6.26021 5.59156,3.72383 c -1.44604,-3.05672 -3.83084,-5.91074 -5.743,-8.69798 -2.92127,-4.25829 -5.7301,-8.59733 -8.59826,-12.89165 -1.4566,-2.18086 -2.94566,-4.34076 -4.40087,-6.52349 -0.657,-0.98551 -1.30236,-2.43 -2.25479,-3.1527 -0.97091,-0.73654 -2.55628,-1.00835 -3.69913,-1.40503 -2.6344,-0.91454 -5.27516,-1.80841 -7.92137,-2.69063 -4.19988,-1.39991 -8.56223,-2.88742 -13.04697,-2.40733 -2.05552,0.2201 -4.54081,0.93908 -5.28091,3.13221 m -24.69605,4.97028 v 0.15532 c 4.58617,0.85131 9.80713,0.64209 14.44486,0.32462 1.9384,-0.1328 3.81841,0.0336 5.74687,-0.32462 -1.59452,-0.66912 -4.32444,-0.15532 -6.05752,-0.15532 h -14.13421 m 0.62128,0.62128 c -1.03319,3.99362 -0.39389,7.93054 -0.31064,11.95972 h 0.15533 c 1.07823,-2.2781 1.99121,-4.65808 2.94939,-6.98945 0.438,-1.06581 0.65281,-2.22156 -0.46426,-2.9511 l -0.62128,2.48514 c -0.45215,-2.09295 1.09563,-3.44114 -1.70854,-4.50431 m 17.39596,4.65963 h -0.15532 l -0.62128,-2.64046 c -0.98505,0.63247 -0.97791,1.64703 -0.5896,2.64046 0.94528,2.41788 1.855,5.00988 3.07473,7.30009 h 0.15532 c 0.034,-4.10249 0.48383,-7.86297 -0.31064,-11.95972 -2.62865,0.87197 -1.71909,2.57569 -1.55321,4.65963 m -13.20229,-1.55321 c -0.6567,2.3368 -0.34232,4.6194 -0.15532,6.98945 1.25904,-1.66535 3.32481,-6.37577 0.15532,-6.98945 m 10.56183,6.98945 h 0.15532 c 0.18779,-2.37875 0.45307,-4.63789 -0.15532,-6.98945 -3.35586,0.6494 -0.84246,5.08894 0,6.98945 m -6.83412,-0.77661 c 0.26793,-0.60451 0.46037,-1.22859 0.64318,-1.86385 0.17086,-0.59317 0.69506,-1.52712 0.49113,-2.14576 -0.22894,-0.69444 -1.709,-1.16336 -2.21721,-0.53477 -0.75082,0.92851 0.454,3.78238 1.0829,4.54438 m 2.9511,0 c 0.77241,-0.51023 2.08145,-3.89358 1.14891,-4.63183 -0.66711,-0.52793 -2.1731,0.0159 -2.16254,0.91034 0.0143,1.22703 0.83268,2.49647 1.01363,3.72149 m -9.37098,-4.55603 -0.0519,0.10344 0.0519,-0.10344 m 16.04978,-0.1036 v 0.46596 h -0.15532 l 0.15532,-0.46596 M 99.737104,264.1786 h 0.155325 l 15.287311,-25.00669 7.85552,-12.89165 c -4.54873,0 -7.03465,2.35513 -10.40651,5.16396 -2.11594,1.76258 -5.4729,3.63669 -6.99908,5.93031 -0.45384,0.68233 -0.4877,1.78495 -0.66602,2.57398 -0.44312,1.9614 -0.88641,3.93056 -1.28139,5.9022 -1.22751,6.12618 -2.75571,12.19426 -3.945156,18.32789 m 51.877226,-37.89834 8.32149,13.66825 14.82135,24.23009 c 0.22165,-0.93798 -0.33922,-2.16999 -0.52809,-3.10642 -0.51302,-2.54509 -1.11955,-5.06968 -1.64594,-7.61073 -0.69817,-3.37124 -1.47648,-6.72478 -2.17449,-10.09587 -0.37215,-1.79754 -0.51163,-4.08852 -1.30982,-5.74626 -0.76807,-1.59515 -3.23814,-2.99444 -4.59285,-4.10483 -4.05015,-3.31999 -7.36874,-7.23423 -12.89165,-7.23423 m -25.162,5.74688 c 0.65778,8.33406 1.72453,16.80388 1.86431,25.16201 0.0351,2.09513 0.29154,4.29976 0.63325,6.36816 0.16433,0.99437 0.25146,1.98361 1.23014,2.48514 -1.11738,-3.97466 -0.91484,-8.19241 -1.0933,-12.27036 -0.17458,-3.98368 -0.77055,-7.96859 -0.77055,-11.95973 h 0.15532 l 1.39789,9.47459 h 0.15532 c 0.003,-0.98799 0.4057,-1.83388 0.45928,-2.79578 0.0989,-1.77858 -0.26435,-3.66589 -0.43287,-5.43624 -0.36703,-3.85429 -0.33099,-8.24739 -3.59879,-11.02779 m 21.4343,0 -2.83291,5.43624 -0.44281,5.28092 -0.44531,5.74687 0.45929,2.9511 h 0.15531 l 1.39789,-9.62991 h 0.15533 c -4.7e-4,3.93708 -0.59845,7.87385 -0.77055,11.80441 -0.18017,4.11647 0.0342,8.4153 -1.0933,12.42568 0.91048,-0.46689 1.0408,-1.39214 1.20373,-2.32981 0.33037,-1.90113 0.34373,-3.83892 0.59426,-5.74689 1.12251,-8.54917 1.25096,-17.33957 1.92971,-25.93861 h -0.31064 m -16.46403,3.7277 c 0.63852,3.43959 -0.26405,7.6811 1.39556,10.87248 0.45897,0.88284 1.54404,2.95716 2.64341,3.0547 0.69397,0.0617 1.30873,-0.43288 2.01855,-0.37929 0.71215,0.0537 1.44169,0.63666 2.14592,0.24726 1.09097,-0.6031 2.1807,-2.71144 2.58391,-3.8546 1.10464,-3.13204 0.25784,-6.75196 1.01705,-9.94055 -1.51314,0.48305 -5.04747,2.76472 -5.50256,4.349 -0.65903,2.29347 0.15486,4.97136 -0.39964,7.30009 h -0.15532 c 0,-2.17869 0.44266,-5.40844 -0.31561,-7.45526 -0.56879,-1.53504 -3.91689,-3.69167 -5.43127,-4.19383 m 0.62128,10.56184 c 0,1.84521 0.6421,5.2062 3.10643,5.38389 0.78499,0.0565 1.27502,-0.73094 2.01917,-0.82786 0.90179,-0.11726 1.44418,0.89092 2.32919,0.82786 2.21783,-0.15827 3.4882,-3.56912 2.95172,-5.38389 -0.7909,1.1896 -1.3631,3.44036 -2.7964,4.05667 -0.7519,0.32338 -1.43703,-0.77722 -2.17387,-0.87274 -0.91251,-0.1182 -1.35735,0.91281 -2.17449,0.93813 -1.2842,0.0397 -2.76348,-3.07007 -2.9511,-4.12206 h -0.31065 m -2.01917,7.45541 c -0.18157,4.23001 -0.40011,8.07188 0.46596,12.27036 2.62058,-0.68139 1.61286,-3.06075 1.24257,-4.97027 h 0.15532 l 1.08725,2.79578 0.77661,-1.24257 h 0.15532 l 0.31064,1.55321 c 1.41653,-0.64396 0.94264,-2.29021 0.31064,-3.41707 h -0.15532 l -0.46596,1.55322 h -0.15532 l -2.4154,-5.28092 -1.31231,-3.26174 m 14.44486,0 -3.57239,8.54266 h -0.15532 l -0.46596,-1.55322 h -0.15532 c -0.63697,1.13168 -1.12126,2.76612 0.31064,3.41707 l 0.31064,-1.55321 h 0.15532 l 0.62128,1.24257 h 0.15533 l 1.08724,-2.79578 h 0.15532 c -0.39917,1.9353 -1.40224,4.28251 1.24257,4.97027 0.67922,-3.50264 1.78464,-8.85345 0.31065,-12.27036 m -7.30009,6.83412 -0.46596,2.01918 h -0.15532 l -0.62129,-1.86386 h -0.15532 c -0.57562,1.02745 -0.67176,2.3438 -0.15532,3.41707 l 0.93193,-0.77661 h 0.15532 c 0.27212,0.93488 0.93254,0.87897 1.24257,0 h 0.15531 l 0.93193,0.77661 c 0.51986,-1.08011 0.3925,-2.37191 -0.15532,-3.41707 h -0.15532 l -0.62129,1.86386 h -0.15531 l -0.46597,-2.01918 h -0.31064 m -7.92138,5.1256 c 0.37946,0.91143 0.84231,2.1164 1.71475,2.66251 0.75952,0.47528 2.21798,0.41999 3.10021,0.44158 2.42782,0.0595 5.04809,0.2291 7.4554,-0.0871 0.71199,-0.0935 1.5265,0.0166 2.16829,-0.36687 0.87741,-0.52452 1.33917,-1.74783 1.71474,-2.65009 -2.48156,1.72593 -5.11099,1.55321 -8.07669,1.55321 -2.97238,0 -5.58705,0.17831 -8.0767,-1.55321 m 0,0.93193 0.93193,6.52348 c 4.60744,0.5823 9.67977,0.58261 14.28954,0 l 0.93192,-6.52348 h -0.15532 c -0.29356,0.86218 -0.71525,1.99742 -1.56719,2.45733 -0.79307,0.42807 -2.20727,0.33813 -3.09244,0.33844 h -6.52348 c -0.88533,-3.1e-4 -2.29938,0.0896 -3.09244,-0.33844 -0.93441,-0.50448 -1.13106,-1.67591 -1.72252,-2.45733 z"
       id="path3517" />
  </g>
</svg>
