<?xml version="1.0" encoding="UTF-8" standalone="no"?>
<svg
   xmlns:dc="http://purl.org/dc/elements/1.1/"
   xmlns:cc="http://creativecommons.org/ns#"
   xmlns:rdf="http://www.w3.org/1999/02/22-rdf-syntax-ns#"
   xmlns:svg="http://www.w3.org/2000/svg"
   xmlns="http://www.w3.org/2000/svg"
   xmlns:xlink="http://www.w3.org/1999/xlink"
   xmlns:sodipodi="http://sodipodi.sourceforge.net/DTD/sodipodi-0.dtd"
   xmlns:inkscape="http://www.inkscape.org/namespaces/inkscape"
   version="1.1"
   id="svg10"
   width="230"
   height="233"
   viewBox="0 0 230 233"
   sodipodi:docname="points-canvas.svg"
   inkscape:version="1.0.1 (3bc2e813f5, 2020-09-07)">
  <metadata
     id="metadata16">
    <rdf:RDF>
      <cc:Work
         rdf:about="">
        <dc:format>image/svg+xml</dc:format>
        <dc:type
           rdf:resource="http://purl.org/dc/dcmitype/StillImage" />
        <dc:title></dc:title>
      </cc:Work>
    </rdf:RDF>
  </metadata>
  <defs
     id="defs14">
    <linearGradient
       inkscape:collect="always"
       id="linearGradient2863">
      <stop
         style="stop-color:#d4af37;stop-opacity:1;"
         offset="0"
         id="stop2859" />
      <stop
         style="stop-color:#996515;stop-opacity:1"
         offset="1"
         id="stop2861" />
    </linearGradient>
    <linearGradient
       inkscape:collect="always"
       xlink:href="#linearGradient2863"
       id="linearGradient2865"
       x1="19.89963"
       y1="8.5483274"
       x2="249.89963"
       y2="238.10223"
       gradientUnits="userSpaceOnUse" />
    <linearGradient
       inkscape:collect="always"
       xlink:href="#linearGradient2863"
       id="linearGradient2868"
       gradientUnits="userSpaceOnUse"
       x1="19.89963"
       y1="8.5483274"
       x2="249.89963"
       y2="238.10223" />
    <linearGradient
       inkscape:collect="always"
       xlink:href="#linearGradient2863"
       id="linearGradient2876"
       gradientUnits="userSpaceOnUse"
       x1="19.89963"
       y1="8.5483274"
       x2="249.89963"
       y2="238.10223" />
  </defs>
  <sodipodi:namedview
     pagecolor="#ffffff"
     bordercolor="#666666"
     borderopacity="1"
     objecttolerance="10"
     gridtolerance="10"
     guidetolerance="10"
     inkscape:pageopacity="0"
     inkscape:pageshadow="2"
     inkscape:window-width="1366"
     inkscape:window-height="705"
     id="namedview12"
     showgrid="false"
     inkscape:zoom="2.0692308"
     inkscape:cx="111.33087"
     inkscape:cy="123.84679"
     inkscape:window-x="-8"
     inkscape:window-y="-8"
     inkscape:window-maximized="1"
     inkscape:current-layer="g18" />
  <g
     inkscape:groupmode="layer"
     inkscape:label="Image"
     id="g18"
     transform="translate(-19.89963,-6.1003717)">
    <path
       id="path22"
       style="opacity:1;mix-blend-mode:normal;fill:url(#linearGradient2876);fill-opacity:1;fill-rule:nonzero;stroke:none"
       d="m 133.89963,6.1003717 c -7.77812,8.5257683 -5.69587,26.0678523 -10.27096,32.4038973 -2.12818,-2.447254 -3.06981,-11.658333 -6.09201,-9.009351 -3.48959,5.699465 -1.95391,16.865104 -7.09017,6.042056 -4.84896,-7.812201 -9.69791,-15.624401 -14.546862,-23.436602 -6.895156,9.340935 -0.158494,26.418057 0.470444,35.614868 -3.490148,-2.538289 -6.980296,-5.076579 -10.470444,-7.614868 0.666667,4 1.333333,8 2,12 -9.333333,-6.333333 -18.666665,-12.666667 -27.999998,-19 -2.354263,11.351556 11.681056,26.953037 12.122483,31.422302 -3.27007,-0.692488 -9.11985,-3.431326 -10.792551,-2.856704 2.223356,3.811467 4.446712,7.622935 6.670068,11.434402 -9.657432,-1.684004 -19.449081,-2.867265 -28.456521,-6.976284 -11.99946,-6.58476 1.262923,11.858611 5.369219,14.461374 4.105636,4.29051 20.337308,10.958202 6.539355,9.51491 -10.835836,-2.371251 -2.779578,6.962155 2.547947,8.654795 -5.410285,1.125099 -12.317636,0.838608 -18.302612,1.421833 -5.232463,0.30779 -10.464925,0.61558 -15.697388,0.92337 3.413985,12.28648 26.047074,14.413 29.186722,16.75553 -2.849804,2.23857 -13.420864,2.73105 -7.895683,6.98575 6.685109,2.91861 12.440692,1.60432 3.552972,5.99814 -7.885823,5.15952 -16.193937,9.52965 -24.844011,13.26058 11.666667,1 23.333333,2 35,3 -1.417481,3.30582 -6.340105,4.78666 -9.119288,7.3835 -2.370682,3.22457 6.541836,0.92854 8.941208,1.6165 7.002007,-1.35436 2.436004,3.1441 -0.737552,5.32576 -6.694789,5.89141 -13.389579,11.78283 -20.084368,17.67424 6.790761,8.0299 23.109978,-1.55626 31.989968,-5.13982 3.965117,-1.53386 -2.514216,6.77519 -3.260963,9.68181 -1.167922,3.05721 6.669343,-1.69573 9.210079,-1.85502 4.456307,-1.84724 -1.892286,5.80019 -2.217129,8.15432 -3.573985,7.38624 -7.14797,14.77247 -10.721955,22.15871 12.103145,1.43403 24.964611,-16.21929 29.701299,-17.05846 -0.134091,3.13691 -2.104635,9.28721 -1.171745,10.67333 3.490148,-2.53829 6.980296,-5.07658 10.470444,-7.61487 -1.333333,11.33333 -2.666667,22.66667 -4,34 12.736622,-0.98689 17.522912,-23.54735 22.322942,-25.06234 1.15338,3.89591 0.21091,14.52926 5.75439,6.89204 2.56504,-6.98645 4.30518,-10.19078 5.46537,-1.46608 2.15243,8.8788 4.30487,17.75759 6.4573,26.63638 12.32494,-5.68604 7.85969,-26.1344 12.27096,-32.4039 2.19272,2.52696 2.91112,11.42887 6.20724,9.18483 4.79832,-5.03794 -0.79365,-16.42974 5.23929,-6.39058 5.4275,7.86989 10.85501,15.73977 16.28251,23.60965 6.8947,-9.34097 0.15892,-26.41811 -0.47044,-35.61487 3.49014,2.53829 6.98029,5.07658 10.47044,7.61487 -0.66667,-4 -1.33333,-8 -2,-12 9.33333,6.33333 18.66667,12.66667 28,19 2.35401,-11.35148 -11.68072,-26.95325 -12.12248,-31.4223 3.27007,0.69249 9.11985,3.43132 10.79255,2.8567 -2.22336,-3.81147 -4.44671,-7.62293 -6.67007,-11.4344 11.33333,3.33333 22.66667,6.66667 34,10 -0.90575,-13.14126 -17.36695,-21.04333 -23.34521,-27 4.11507,0 8.23014,0 12.34521,0 -0.743,-6.6891 -16.86835,-9.43481 -4.11645,-9.3362 9.70549,-0.5546 19.41097,-1.1092 29.11645,-1.6638 -3.41383,-12.28663 -26.0471,-14.41298 -29.18672,-16.75553 2.84979,-2.23857 13.4208,-2.73102 7.89575,-6.98575 -6.72763,-2.99656 -12.46971,-1.65748 -3.22542,-5.39595 8.17213,-3.95426 16.34426,-7.90851 24.51639,-11.86277 -8.53366,-8.409239 -24.89635,-3.85698 -35,-5.654793 2.57688,-3.060515 7.84954,-4.717465 10,-8 -3.97394,-0.807797 -9.45015,-0.113317 -14,-0.345205 1.37659,-3.690977 5.78973,-6.122142 8.34369,-9.32465 5.40091,-5.751653 11.73018,-10.494459 17.65631,-15.67535 -10.91626,-2.134991 -28.92209,7.095759 -34.1215,6.243002 1.16122,-3.0514 4.87671,-8.318111 4.50031,-10.035938 -3.79294,1.264312 -7.58587,2.528624 -11.37881,3.792936 5,-10.333333 10,-20.666667 15,-31 -12.1031,-1.43388 -24.96455,16.219355 -29.7013,17.058458 -0.46764,-2.964103 3.7652,-11.541378 -0.10598,-10.441084 -6.18053,2.280897 -10.75597,13.900977 -8.44922,1.877027 1.0855,-9.498134 2.171,-18.996267 3.2565,-28.494401 -13.22927,2.419685 -17.25688,21.388822 -23.05022,27.347134 -0.31659,-4.115711 -0.63319,-8.231423 -0.94978,-12.347134 -6.46489,1.662631 -7.47164,17.869961 -9.38843,5.27274 -2.20385,-9.090914 -4.40771,-18.181827 -6.61157,-27.2727403 -0.66667,0 -1.33333,0 -2,0 z m -7,38.2863003 c 28.69596,-4.34204 58.28072,10.838757 72.77721,35.713544 18.54966,29.315584 17.48026,71.504294 -7.64996,96.777064 -22.93044,24.05771 -61.45608,31.35664 -91.3215,16.45474 C 65.242074,176.94942 48.617117,131.95372 61.423322,95.715473 70.599591,67.430389 97.637795,47.429133 126.89963,44.386672 Z m -2,6.1419 c -31.462785,3.71679 -59.425047,30.159457 -61.776572,62.273728 -3.901866,36.46193 21.567407,75.23494 58.610532,81.54309 34.59432,6.60803 73.21643,-14.88373 82.50976,-49.54251 11.22741,-38.38573 -13.13149,-84.426789 -52.91541,-93.288856 -8.64189,-2.016485 -17.65743,-2.251698 -26.42831,-0.985452 z m -36.000002,1.5718 c -1.148934,1.148934 -1.427835,1.427835 0,0 z m 107.000002,12 c -1.14893,1.148934 -1.42784,1.427835 0,0 z m -121,115.999998 c -1.148934,1.14893 -1.427835,1.42784 0,0 z m 107,12 c -1.14893,1.14893 -1.42784,1.42784 0,0 z" />
    <path
       id="path2870"
       style="opacity:1;mix-blend-mode:normal;fill:url(#linearGradient2868);fill-opacity:1;fill-rule:nonzero;stroke:none"
       d="m 133.89963,6.1003717 c -7.77812,8.5257683 -5.69587,26.0678523 -10.27096,32.4038973 -2.12818,-2.447254 -3.06981,-11.658333 -6.09201,-9.009351 -3.48959,5.699465 -1.95391,16.865104 -7.09017,6.042056 -4.84896,-7.812201 -9.69791,-15.624401 -14.546862,-23.436602 -6.895156,9.340935 -0.158494,26.418057 0.470444,35.614868 -3.490148,-2.538289 -6.980296,-5.076579 -10.470444,-7.614868 0.666667,4 1.333333,8 2,12 -9.333333,-6.333333 -18.666665,-12.666667 -27.999998,-19 -2.354263,11.351556 11.681056,26.953037 12.122483,31.422302 -3.27007,-0.692488 -9.11985,-3.431326 -10.792551,-2.856704 2.223356,3.811467 4.446712,7.622935 6.670068,11.434402 -9.657432,-1.684004 -19.449081,-2.867265 -28.456521,-6.976284 -11.99946,-6.58476 1.262923,11.858611 5.369219,14.461374 4.105636,4.29051 20.337308,10.958202 6.539355,9.51491 -10.835836,-2.371251 -2.779578,6.962155 2.547947,8.654795 -5.410285,1.125099 -12.317636,0.838608 -18.302612,1.421833 -5.232463,0.30779 -10.464925,0.61558 -15.697388,0.92337 3.413985,12.28648 26.047074,14.413 29.186722,16.75553 -2.849804,2.23857 -13.420864,2.73105 -7.895683,6.98575 6.685109,2.91861 12.440692,1.60432 3.552972,5.99814 -7.885823,5.15952 -16.193937,9.52965 -24.844011,13.26058 11.666667,1 23.333333,2 35,3 -1.417481,3.30582 -6.340105,4.78666 -9.119288,7.3835 -2.370682,3.22457 6.541836,0.92854 8.941208,1.6165 7.002007,-1.35436 2.436004,3.1441 -0.737552,5.32576 -6.694789,5.89141 -13.389579,11.78283 -20.084368,17.67424 6.790761,8.0299 23.109978,-1.55626 31.989968,-5.13982 3.965117,-1.53386 -2.514216,6.77519 -3.260963,9.68181 -1.167922,3.05721 6.669343,-1.69573 9.210079,-1.85502 4.456307,-1.84724 -1.892286,5.80019 -2.217129,8.15432 -3.573985,7.38624 -7.14797,14.77247 -10.721955,22.15871 12.103145,1.43403 24.964611,-16.21929 29.701299,-17.05846 -0.134091,3.13691 -2.104635,9.28721 -1.171745,10.67333 3.490148,-2.53829 6.980296,-5.07658 10.470444,-7.61487 -1.333333,11.33333 -2.666667,22.66667 -4,34 12.736622,-0.98689 17.522912,-23.54735 22.322942,-25.06234 1.15338,3.89591 0.21091,14.52926 5.75439,6.89204 2.56504,-6.98645 4.30518,-10.19078 5.46537,-1.46608 2.15243,8.8788 4.30487,17.75759 6.4573,26.63638 12.32494,-5.68604 7.85969,-26.1344 12.27096,-32.4039 2.19272,2.52696 2.91112,11.42887 6.20724,9.18483 4.79832,-5.03794 -0.79365,-16.42974 5.23929,-6.39058 5.4275,7.86989 10.85501,15.73977 16.28251,23.60965 6.8947,-9.34097 0.15892,-26.41811 -0.47044,-35.61487 3.49014,2.53829 6.98029,5.07658 10.47044,7.61487 -0.66667,-4 -1.33333,-8 -2,-12 9.33333,6.33333 18.66667,12.66667 28,19 2.35401,-11.35148 -11.68072,-26.95325 -12.12248,-31.4223 3.27007,0.69249 9.11985,3.43132 10.79255,2.8567 -2.22336,-3.81147 -4.44671,-7.62293 -6.67007,-11.4344 11.33333,3.33333 22.66667,6.66667 34,10 -0.90575,-13.14126 -17.36695,-21.04333 -23.34521,-27 4.11507,0 8.23014,0 12.34521,0 -0.743,-6.6891 -16.86835,-9.43481 -4.11645,-9.3362 9.70549,-0.5546 19.41097,-1.1092 29.11645,-1.6638 -3.41383,-12.28663 -26.0471,-14.41298 -29.18672,-16.75553 2.84979,-2.23857 13.4208,-2.73102 7.89575,-6.98575 -6.72763,-2.99656 -12.46971,-1.65748 -3.22542,-5.39595 8.17213,-3.95426 16.34426,-7.90851 24.51639,-11.86277 -8.53366,-8.409239 -24.89635,-3.85698 -35,-5.654793 2.57688,-3.060515 7.84954,-4.717465 10,-8 -3.97394,-0.807797 -9.45015,-0.113317 -14,-0.345205 1.37659,-3.690977 5.78973,-6.122142 8.34369,-9.32465 5.40091,-5.751653 11.73018,-10.494459 17.65631,-15.67535 -10.91626,-2.134991 -28.92209,7.095759 -34.1215,6.243002 1.16122,-3.0514 4.87671,-8.318111 4.50031,-10.035938 -3.79294,1.264312 -7.58587,2.528624 -11.37881,3.792936 5,-10.333333 10,-20.666667 15,-31 -12.1031,-1.43388 -24.96455,16.219355 -29.7013,17.058458 -0.46764,-2.964103 3.7652,-11.541378 -0.10598,-10.441084 -6.18053,2.280897 -10.75597,13.900977 -8.44922,1.877027 1.0855,-9.498134 2.171,-18.996267 3.2565,-28.494401 -13.22927,2.419685 -17.25688,21.388822 -23.05022,27.347134 -0.31659,-4.115711 -0.63319,-8.231423 -0.94978,-12.347134 -6.46489,1.662631 -7.47164,17.869961 -9.38843,5.27274 -2.20385,-9.090914 -4.40771,-18.181827 -6.61157,-27.2727403 -0.66667,0 -1.33333,0 -2,0 z m -7,38.2863003 c 28.69596,-4.34204 58.28072,10.838757 72.77721,35.713544 18.54966,29.315584 17.48026,71.504294 -7.64996,96.777064 -22.93044,24.05771 -61.45608,31.35664 -91.3215,16.45474 C 65.242074,176.94942 48.617117,131.95372 61.423322,95.715473 70.599591,67.430389 97.637795,47.429133 126.89963,44.386672 Z m -2,6.1419 c -31.462785,3.71679 -59.425047,30.159457 -61.776572,62.273728 -3.901866,36.46193 21.567407,75.23494 58.610532,81.54309 34.59432,6.60803 73.21643,-14.88373 82.50976,-49.54251 11.22741,-38.38573 -13.13149,-84.426789 -52.91541,-93.288856 -8.64189,-2.016485 -17.65743,-2.251698 -26.42831,-0.985452 z m -36.000002,1.5718 c -1.148934,1.148934 -1.427835,1.427835 0,0 z m 107.000002,12 c -1.14893,1.148934 -1.42784,1.427835 0,0 z m -121,115.999998 c -1.148934,1.14893 -1.427835,1.42784 0,0 z m 107,12 c -1.14893,1.14893 -1.42784,1.42784 0,0 z" />
    <ellipse
       style="opacity:1;fill:#000000;fill-opacity:1;fill-rule:nonzero;stroke:#35469d;stroke-width:0.113073"
       id="path2874"
       cx="135.52472"
       cy="122.33412"
       rx="79.944954"
       ry="79.94194"
       transform="matrix(0.99998132,-0.00611189,0,1,0,0)" />
  </g>
</svg>
